<svg width="20" height="17" viewBox="0 0 20 17" fill="none" xmlns="http://www.w3.org/2000/svg">
<path d="M19.2572 9.52984H16.5271V6.96573H19.2572C19.6675 6.96573 20 6.64109 20 6.24013C20 5.83912 19.6675 5.51429 19.2572 5.51429H16.5271V1.95645C16.5271 1.43709 16.4221 1.0559 16.2151 0.823694C16.0183 0.602791 15.7596 0.5 15.4014 0.5C15.0595 0.5 14.8106 0.602082 14.6176 0.821607C14.413 1.05405 14.3092 1.43595 14.3092 1.95668V5.51472H9.17366L6.9901 2.28573C6.80322 1.99756 6.62751 1.72763 6.45687 1.46852C6.30324 1.23517 6.1534 1.04519 6.01187 0.903328C5.88657 0.777734 5.74378 0.680535 5.57677 0.605824C5.41919 0.535524 5.21886 0.500236 4.98184 0.500236C4.67954 0.500236 4.40513 0.58117 4.14237 0.747447C3.88234 0.911914 3.7026 1.11525 3.59282 1.36912C3.49646 1.61038 3.44548 1.98008 3.44548 2.45729V5.51448H0.742471C0.332324 5.51452 0 5.83936 0 6.24032C0 6.64129 0.332324 6.96593 0.742511 6.96593H3.44552V9.53032H0.742511C0.332324 9.53032 0 9.85507 0 10.2562C0 10.657 0.332324 10.9815 0.742511 10.9815H3.44552V15.0437C3.44552 15.5477 3.55389 15.925 3.76853 16.1648C3.97266 16.3934 4.23147 16.4995 4.58294 16.4995C4.92204 16.4995 5.17884 16.3929 5.39179 16.1639C5.60986 15.9292 5.72016 15.5521 5.72016 15.0437V10.9815H10.3672L12.882 14.7499C13.0569 14.999 13.2374 15.2504 13.4175 15.4969C13.5799 15.7183 13.7572 15.9134 13.9442 16.0763C14.1126 16.2237 14.2931 16.3317 14.4808 16.3976C14.674 16.4655 14.8998 16.5 15.1504 16.5C15.8305 16.5 16.527 16.2965 16.527 14.7876V10.9815H19.2572C19.6674 10.9815 19.9999 10.6565 19.9999 10.2557C20 9.85484 19.6675 9.52984 19.2572 9.52984ZM14.3091 6.96569V9.5298H11.8894L10.1556 6.96569H14.3091ZM5.7202 4.01944L6.71806 5.51429H5.7202V4.01944ZM5.7202 9.52984V6.96573H7.68699L9.39842 9.52984H5.7202ZM14.3091 13.1088L12.8711 10.9815H14.3091V13.1088Z" fill="#27214D"/>
</svg>
