<svg width="22" height="12" viewBox="0 0 22 12" fill="none" xmlns="http://www.w3.org/2000/svg">
<path d="M0 1.875C0 1.51033 0.144866 1.16059 0.402728 0.902728C0.660591 0.644866 1.01033 0.5 1.375 0.5H20.625C20.9897 0.5 21.3394 0.644866 21.5973 0.902728C21.8551 1.16059 22 1.51033 22 1.875C22 2.23967 21.8551 2.58941 21.5973 2.84727C21.3394 3.10513 20.9897 3.25 20.625 3.25H1.375C1.01033 3.25 0.660591 3.10513 0.402728 2.84727C0.144866 2.58941 0 2.23967 0 1.875Z" fill="#070648"/>
<path d="M1.375 8.75C1.01033 8.75 0.660591 8.89487 0.402728 9.15273C0.144866 9.41059 0 9.76033 0 10.125C0 10.4897 0.144866 10.8394 0.402728 11.0973C0.660591 11.3551 1.01033 11.5 1.375 11.5H12.375C12.7397 11.5 13.0894 11.3551 13.3473 11.0973C13.6051 10.8394 13.75 10.4897 13.75 10.125C13.75 9.76033 13.6051 9.41059 13.3473 9.15273C13.0894 8.89487 12.7397 8.75 12.375 8.75H1.375Z" fill="#070648"/>
</svg>
